P3
63 80
255
0 0 0 0 0 0 0 0 0 0 0 0 0 0 0 0 0 0 0 0 0 0 0 0 
0 0 0 0 0 0 0 0 0 0 0 0 0 0 0 0 0 0 0 0 0 0 0 0 
0 0 0 0 0 0 0 0 0 0 0 0 0 0 0 0 0 0 0 0 0 0 0 0 
0 0 0 0 0 0 0 0 0 0 0 0 0 1 1 10 5 5 18 9 9 16 4 3 
16 4 3 18 9 9 3 3 2 0 0 0 0 0 0 0 0 0 0 0 0 0 0 0 
0 0 0 0 0 0 0 0 0 0 0 0 0 0 0 0 0 0 0 0 0 0 0 0 
0 0 0 0 0 0 0 0 0 0 0 0 0 0 0 0 0 0 0 0 0 0 0 0 
0 0 0 0 0 0 0 0 0 0 0 0 0 0 0 0 0 0 0 0 0 
0 0 0 0 0 0 0 0 0 0 0 0 0 0 0 0 0 0 0 0 0 0 0 0 
0 0 0 0 0 0 0 0 0 0 0 0 0 0 0 0 0 0 0 0 0 0 0 0 
0 0 0 0 0 0 0 0 0 0 0 0 0 0 0 0 0 0 0 0 0 3 3 2 
41 16 15 78 21 16 115 31 30 141 41 33 167 56 44 185 56 50 191 59 52 189 53 48 
191 55 49 185 56 50 175 53 48 158 48 40 125 45 34 97 39 22 55 14 14 27 10 9 
0 0 0 0 0 0 0 0 0 0 0 0 0 0 0 0 0 0 0 0 0 0 0 0 
0 0 0 0 0 0 0 0 0 0 0 0 0 0 0 0 0 0 0 0 0 0 0 0 
0 0 0 0 0 0 0 0 0 0 0 0 0 0 0 0 0 0 0 0 0 
0 0 0 0 0 0 0 0 0 0 0 0 0 0 0 0 0 0 0 0 0 0 0 0 
0 0 0 0 0 0 0 0 0 0 0 0 0 0 0 0 0 0 0 0 0 0 0 0 
0 0 0 0 0 0 0 0 0 0 0 0 16 4 3 91 20 16 125 45 34 185 56 50 
208 61 55 228 67 60 228 67 60 219 61 55 214 61 56 205 57 52 202 57 51 204 60 54 
202 57 51 205 57 52 208 59 53 219 61 55 225 64 57 227 64 57 221 65 58 194 57 51 
158 48 40 115 31 30 55 14 14 0 0 0 0 0 0 0 0 0 0 0 0 0 0 0 
0 0 0 0 0 0 0 0 0 0 0 0 0 0 0 0 0 0 0 0 0 0 0 0 
0 0 0 0 0 0 0 0 0 0 0 0 0 0 0 0 0 0 0 0 0 
0 0 0 0 0 0 0 0 0 0 0 0 0 0 0 0 0 0 0 0 0 0 0 0 
0 0 0 0 0 0 0 0 0 0 0 0 0 0 0 0 0 0 0 0 0 0 0 0 
0 0 0 3 3 2 55 14 14 139 26 24 204 60 54 235 88 73 230 58 54 208 59 53 
198 57 51 192 55 49 192 55 49 192 55 49 192 55 49 192 55 49 192 55 49 192 55 49 
192 55 49 192 55 49 192 55 49 192 55 49 192 55 49 192 55 49 195 55 49 202 57 51 
214 61 56 230 66 59 212 90 70 185 34 35 102 20 19 27 10 9 0 0 0 0 0 0 
0 0 0 0 0 0 0 0 0 0 0 0 0 0 0 0 0 0 0 0 0 0 0 0 
0 0 0 0 0 0 0 0 0 0 0 0 0 0 0 0 0 0 0 0 0 
0 0 0 0 0 0 0 0 0 0 0 0 0 0 0 0 0 0 0 0 0 0 0 0 
0 0 0 0 0 0 0 0 0 0 0 0 0 0 0 0 0 0 0 0 0 3 3 2 
91 20 16 160 30 27 230 66 59 221 114 88 225 199 144 208 165 115 185 34 35 192 55 49 
192 55 49 192 55 49 192 55 49 195 55 49 198 57 51 200 57 51 204 60 54 204 60 54 
204 60 54 202 57 51 200 57 51 198 57 51 194 57 51 192 55 49 192 55 49 192 55 49 
185 34 35 196 92 73 214 194 140 218 143 107 235 88 73 198 43 43 139 26 24 41 16 15 
0 0 0 0 0 0 0 0 0 0 0 0 0 0 0 0 0 0 0 0 0 0 0 0 
0 0 0 0 0 0 0 0 0 0 0 0 0 0 0 0 0 0 0 0 0 
0 0 0 0 0 0 0 0 0 0 0 0 0 0 0 0 0 0 0 0 0 0 0 0 
0 0 0 0 0 0 0 0 0 0 0 0 0 0 0 0 1 1 78 21 16 186 31 34 
230 66 59 221 114 88 211 181 131 222 212 152 215 207 148 209 179 129 191 59 52 194 44 42 
206 59 53 211 61 57 206 59 53 195 55 49 189 53 48 183 53 46 175 53 48 169 47 39 
169 47 39 183 53 46 183 53 46 191 55 49 200 57 51 208 61 55 208 61 55 204 60 54 
186 31 34 200 117 90 222 212 152 215 207 148 215 207 148 218 143 107 235 88 73 212 47 46 
139 26 24 27 10 9 0 0 0 0 0 0 0 0 0 0 0 0 0 0 0 0 0 0 
0 0 0 0 0 0 0 0 0 0 0 0 0 0 0 0 0 0 0 0 0 
0 0 0 0 0 0 0 0 0 0 0 0 0 0 0 0 0 0 0 0 0 0 0 0 
0 0 0 0 0 0 0 0 0 0 0 0 41 16 15 160 30 27 219 50 48 221 114 88 
203 168 122 222 212 152 214 194 140 211 181 131 212 183 132 213 202 144 196 92 73 197 39 39 
169 47 39 141 41 33 100 27 14 100 27 12 89 23 8 89 23 8 89 23 8 89 23 8 
89 23 8 89 23 8 89 23 8 89 23 8 100 27 12 115 31 30 154 44 34 183 53 46 
204 45 43 208 165 115 212 197 142 212 182 132 212 182 132 215 207 148 213 202 144 218 143 107 
228 67 60 198 35 37 106 32 24 0 1 1 0 0 0 0 0 0 0 0 0 0 0 0 
0 0 0 0 0 0 0 0 0 0 0 0 0 0 0 0 0 0 0 0 0 
0 0 0 0 0 0 0 0 0 0 0 0 0 0 0 0 0 0 0 0 0 0 0 0 
0 0 0 0 0 0 0 1 1 91 20 16 204 45 43 230 66 59 208 165 115 215 207 148 
213 202 144 211 181 131 212 182 132 212 182 132 214 182 131 222 212 152 180 120 86 93 3 4 
79 15 2 89 23 8 120 25 16 125 45 34 154 44 34 169 47 39 169 47 39 169 47 39 
169 47 39 169 47 39 158 48 40 141 41 33 120 25 16 100 27 12 79 15 2 79 15 2 
141 41 33 217 185 135 217 191 138 212 182 132 212 182 132 212 180 130 214 186 135 215 207 148 
209 193 138 221 114 88 231 46 46 160 30 27 18 9 9 0 0 0 0 0 0 0 0 0 
0 0 0 0 0 0 0 0 0 0 0 0 0 0 0 0 0 0 0 0 0 
0 0 0 0 0 0 0 0 0 0 0 0 0 0 0 0 0 0 0 0 0 0 0 0 
0 0 0 0 1 1 115 31 30 231 46 46 212 90 70 212 197 142 215 207 148 212 183 132 
211 181 131 212 182 132 212 182 132 212 182 132 212 182 132 223 207 149 180 150 102 79 15 2 
169 47 39 198 57 51 204 60 54 212 60 55 208 61 55 204 60 54 204 60 54 204 60 54 
204 60 54 204 60 54 206 59 53 211 61 57 208 61 55 204 60 54 194 57 51 93 3 4 
117 63 39 222 212 152 214 183 133 212 182 132 212 182 132 212 182 132 212 182 132 212 180 130 
214 194 140 215 207 148 200 143 104 230 66 59 198 35 37 41 16 15 0 0 0 0 0 0 
0 0 0 0 0 0 0 0 0 0 0 0 0 0 0 0 0 0 0 0 0 
0 0 0 0 0 0 0 0 0 0 0 0 0 0 0 0 0 0 0 0 0 0 0 0 
0 0 0 115 31 30 231 46 46 200 143 104 222 212 152 214 194 140 212 180 130 212 182 132 
212 182 132 212 182 132 212 182 132 212 182 132 212 182 132 217 188 137 212 184 133 118 54 34 
185 34 35 204 60 54 192 55 49 192 55 49 192 55 49 192 55 49 192 55 49 192 55 49 
192 55 49 192 55 49 192 55 49 192 55 49 192 55 49 191 55 49 227 64 57 120 25 16 
154 121 82 222 212 152 211 181 131 212 182 132 212 182 132 212 182 132 212 182 132 212 182 132 
211 181 131 212 184 133 222 212 152 203 186 132 228 67 60 204 45 43 32 11 10 0 0 0 
0 0 0 0 0 0 0 0 0 0 0 0 0 0 0 0 0 0 0 0 0 
0 0 0 0 0 0 0 0 0 0 0 0 0 0 0 0 0 0 0 0 0 0 0 0 
70 17 11 230 58 54 218 143 107 222 212 152 212 184 133 211 181 131 212 182 132 212 182 132 
212 182 132 212 182 132 212 182 132 212 182 132 212 182 132 212 182 132 222 212 152 135 90 58 
160 30 27 202 57 51 192 56 49 192 55 49 192 55 49 192 55 49 192 55 49 192 55 49 
192 55 49 192 55 49 192 55 49 192 55 49 192 55 49 192 55 49 198 54 49 120 25 16 
181 157 110 225 199 144 214 183 133 212 182 132 212 182 132 212 182 132 212 182 132 212 182 132 
212 182 132 212 182 132 212 180 130 213 202 144 213 202 144 235 88 73 186 31 34 10 5 5 
0 0 0 0 0 0 0 0 0 0 0 0 0 0 0 0 0 0 0 0 0 
0 0 0 0 0 0 0 0 0 0 0 0 0 0 0 0 0 0 0 0 0 0 1 1 
190 42 41 226 170 125 215 207 148 212 183 132 211 181 131 212 182 132 212 182 132 212 182 132 
212 182 132 212 182 132 212 182 132 212 182 132 212 182 132 214 183 133 223 207 149 166 136 93 
139 26 24 206 59 53 192 55 49 192 55 49 192 55 49 192 55 49 192 55 49 192 55 49 
192 55 49 192 55 49 192 55 49 192 55 49 192 55 49 194 57 51 185 34 35 144 52 37 
209 193 138 215 185 135 212 182 132 212 182 132 212 182 132 212 182 132 212 182 132 212 182 132 
212 182 132 212 182 132 212 182 132 212 180 130 212 197 142 215 207 148 235 88 73 91 20 16 
0 0 0 0 0 0 0 0 0 0 0 0 0 0 0 0 0 0 0 0 0 
0 0 0 0 0 0 0 0 0 0 0 0 0 0 0 0 0 0 0 0 0 38 3 3 
221 114 88 222 212 152 212 183 132 212 182 132 212 182 132 212 182 132 212 182 132 212 182 132 
212 182 132 212 182 132 212 182 132 212 182 132 212 182 132 212 182 132 219 198 144 196 170 121 
158 48 40 204 45 43 191 55 49 192 55 49 192 55 49 192 55 49 192 55 49 192 55 49 
192 55 49 192 55 49 192 55 49 192 55 49 192 55 49 198 58 51 160 30 27 155 93 65 
222 212 152 212 180 130 212 182 132 212 182 132 212 182 132 212 182 132 212 182 132 212 182 132 
212 182 132 212 182 132 212 182 132 212 182 132 212 180 130 215 207 148 241 198 135 141 41 33 
0 0 0 0 0 0 0 0 0 0 0 0 0 0 0 0 0 0 0 0 0 
0 0 0 0 0 0 0 0 0 0 0 0 0 0 0 0 0 0 0 0 0 93 3 4 
221 114 88 213 202 144 213 183 133 212 182 132 212 182 132 212 182 132 212 182 132 212 182 132 
212 182 132 212 182 132 212 182 132 212 182 132 212 182 132 212 182 132 212 182 132 213 202 144 
182 83 64 194 36 38 192 55 49 192 55 49 192 55 49 192 55 49 192 55 49 192 55 49 
192 55 49 192 55 49 192 55 49 192 55 49 192 55 49 195 55 49 185 34 35 185 153 107 
223 207 149 212 182 132 212 182 132 212 182 132 212 182 132 212 182 132 212 182 132 212 182 132 
212 182 132 212 182 132 212 182 132 212 182 132 212 183 132 214 194 140 226 170 125 169 47 39 
0 0 0 0 0 0 0 0 0 0 0 0 0 0 0 0 0 0 0 0 0 
0 0 0 0 0 0 0 0 0 0 0 0 0 0 0 0 0 0 0 0 0 120 25 16 
235 88 73 209 193 138 215 185 135 212 182 132 212 182 132 212 182 132 212 182 132 212 182 132 
212 182 132 212 182 132 212 182 132 212 182 132 212 182 132 212 182 132 211 181 131 215 207 148 
200 117 90 186 31 34 192 55 49 192 55 49 192 55 49 192 55 49 192 55 49 192 55 49 
192 55 49 192 55 49 192 55 49 192 55 49 192 55 49 194 44 42 185 61 53 205 178 130 
217 191 138 212 182 132 212 182 132 212 182 132 212 182 132 212 182 132 212 182 132 212 182 132 
212 182 132 212 182 132 212 182 132 212 182 132 212 182 132 219 198 144 200 143 104 196 48 45 
32 11 10 0 0 0 0 0 0 0 0 0 0 0 0 0 0 0 0 0 0 
0 0 0 0 0 0 0 0 0 0 0 0 0 0 0 0 0 0 0 1 1 160 30 27 
212 90 70 203 186 132 217 188 137 212 182 132 212 182 132 212 182 132 212 182 132 212 182 132 
212 182 132 212 182 132 212 182 132 212 182 132 212 182 132 212 182 132 212 182 132 213 202 144 
208 165 115 190 42 41 191 52 48 192 55 49 192 55 49 192 55 49 192 55 49 192 55 49 
192 55 49 192 55 49 192 55 49 192 55 49 192 56 49 186 31 34 196 92 73 215 207 148 
212 182 132 212 182 132 212 182 132 212 182 132 212 182 132 212 182 132 212 182 132 212 182 132 
212 182 132 212 182 132 212 182 132 212 182 132 212 182 132 213 202 144 200 143 104 212 47 46 
70 17 11 0 0 0 0 0 0 0 0 0 0 0 0 0 0 0 0 0 0 
0 0 0 0 0 0 0 0 0 0 0 0 0 0 0 0 0 0 0 1 1 181 43 41 
196 79 64 197 176 127 219 190 138 212 182 132 212 182 132 212 182 132 212 182 132 212 182 132 
212 182 132 212 182 132 212 182 132 212 182 132 212 182 132 212 182 132 212 182 132 213 188 135 
214 186 135 196 79 64 193 39 40 191 55 49 192 55 49 192 55 49 192 55 49 192 55 49 
192 55 49 192 55 49 192 55 49 192 55 49 192 55 49 186 31 34 200 143 104 215 207 148 
212 182 132 212 182 132 212 182 132 212 182 132 212 182 132 212 182 132 212 182 132 212 182 132 
212 182 132 212 182 132 212 182 132 212 182 132 213 183 133 212 197 142 179 132 94 219 50 48 
91 20 16 0 1 1 0 0 0 0 0 0 0 0 0 0 0 0 0 0 0 
0 0 0 0 0 0 0 0 0 0 0 0 0 0 0 0 0 0 27 10 9 198 43 43 
187 72 58 196 170 121 219 190 138 212 182 132 212 182 132 212 182 132 212 182 132 212 182 132 
212 182 132 212 182 132 212 182 132 212 182 132 212 182 132 212 182 132 212 182 132 212 182 132 
215 207 148 196 92 73 183 20 26 193 39 40 185 34 35 193 39 40 185 34 35 193 39 40 
185 34 35 193 39 40 185 34 35 194 36 38 186 31 34 193 39 40 208 165 115 212 197 142 
212 182 132 212 182 132 212 182 132 212 182 132 212 182 132 212 182 132 212 182 132 212 182 132 
212 182 132 212 182 132 212 182 132 212 182 132 213 184 133 212 197 142 180 120 86 230 58 54 
115 31 30 0 0 0 0 0 0 0 0 0 0 0 0 0 0 0 0 0 0 
0 0 0 0 0 0 0 0 0 0 0 0 0 0 0 0 0 0 55 14 14 219 50 48 
185 61 53 186 164 115 217 191 138 212 182 132 212 182 132 212 182 132 212 182 132 212 182 132 
212 182 132 212 182 132 212 182 132 212 182 132 212 182 132 212 182 132 212 182 132 212 182 132 
213 202 144 200 143 104 196 79 64 196 79 64 196 92 73 196 79 64 196 92 73 196 79 64 
196 92 73 196 79 64 196 92 73 196 79 64 196 79 64 196 92 73 214 194 140 214 186 135 
212 182 132 212 182 132 212 182 132 212 182 132 212 182 132 212 182 132 212 182 132 212 182 132 
212 182 132 212 182 132 212 182 132 212 182 132 216 187 136 203 186 132 180 120 86 219 50 48 
144 52 37 0 0 0 0 0 0 0 0 0 0 0 0 0 0 0 0 0 0 
0 0 0 0 0 0 0 0 0 0 0 0 0 0 0 0 1 1 78 21 16 219 50 48 
187 72 58 181 157 110 213 188 135 213 183 133 212 182 132 212 182 132 212 182 132 212 182 132 
212 182 132 212 182 132 212 182 132 212 182 132 212 182 132 212 182 132 212 182 132 212 182 132 
212 180 130 214 193 139 214 194 140 214 193 139 214 193 139 214 193 139 214 193 139 214 193 139 
214 193 139 214 193 139 214 193 139 214 193 139 214 193 139 212 197 142 212 183 132 211 181 131 
212 182 132 212 182 132 212 182 132 212 182 132 212 182 132 212 182 132 212 182 132 212 182 132 
212 182 132 212 182 132 212 182 132 212 182 132 217 188 137 203 186 132 181 109 75 212 47 46 
169 47 39 0 0 0 0 0 0 0 0 0 0 0 0 0 0 0 0 0 0 
0 0 0 0 0 0 0 0 0 0 0 0 0 0 0 0 0 0 95 29 20 230 58 54 
185 61 53 178 153 106 212 184 133 214 184 134 212 182 132 212 182 132 212 182 132 212 182 132 
212 182 132 212 182 132 212 182 132 212 182 132 212 182 132 212 182 132 212 182 132 212 182 132 
212 182 132 212 183 132 213 184 133 213 184 133 213 184 133 213 184 133 213 184 133 213 184 133 
213 184 133 213 184 133 213 184 133 213 184 133 214 186 135 212 184 133 212 182 132 212 182 132 
212 182 132 212 182 132 212 182 132 212 182 132 212 182 132 212 182 132 212 182 132 212 182 132 
212 182 132 212 182 132 212 182 132 212 182 132 219 189 138 188 178 124 181 109 75 204 45 43 
183 53 46 3 3 2 0 0 0 0 0 0 0 0 0 0 0 0 0 0 0 
0 0 0 0 0 0 0 0 0 0 0 0 0 0 0 0 1 1 115 31 30 230 58 54 
185 61 53 172 145 100 205 178 130 216 187 136 212 182 132 212 182 132 212 182 132 212 182 132 
212 182 132 212 182 132 212 182 132 212 182 132 212 182 132 212 182 132 212 182 132 212 182 132 
212 182 132 212 182 132 212 182 132 212 182 132 212 182 132 212 182 132 212 182 132 212 182 132 
212 182 132 212 182 132 212 182 132 212 182 132 212 182 132 212 182 132 212 182 132 212 182 132 
212 182 132 212 182 132 212 182 132 212 182 132 212 182 132 212 182 132 212 182 132 212 182 132 
212 182 132 212 182 132 212 182 132 212 182 132 217 187 137 188 178 124 179 96 72 204 45 43 
194 57 51 27 10 9 0 0 0 0 0 0 0 0 0 0 0 0 0 0 0 
0 0 0 0 0 0 0 0 0 0 0 0 0 0 0 0 0 0 141 41 33 219 50 48 
187 72 58 170 139 94 197 176 127 219 188 137 212 182 132 212 182 132 212 182 132 212 182 132 
212 182 132 212 182 132 212 182 132 212 182 132 212 182 132 212 182 132 212 182 132 212 182 132 
212 182 132 212 182 132 212 182 132 212 182 132 212 182 132 212 182 132 212 182 132 212 182 132 
212 182 132 212 182 132 212 182 132 212 182 132 212 182 132 212 182 132 212 182 132 212 182 132 
212 182 132 212 182 132 212 182 132 212 182 132 212 182 132 212 182 132 212 182 132 212 182 132 
212 182 132 212 182 132 212 182 132 213 183 133 215 185 135 176 166 112 179 96 72 198 43 43 
211 61 57 41 16 15 0 0 0 0 0 0 0 0 0 0 0 0 0 0 0 
0 0 0 0 0 0 0 0 0 0 0 0 0 0 0 0 0 0 158 48 40 219 50 48 
191 59 52 166 136 93 196 170 121 220 189 138 212 182 132 212 182 132 212 182 132 212 182 132 
212 182 132 212 182 132 212 182 132 212 182 132 212 182 132 212 182 132 212 182 132 212 182 132 
212 182 132 212 182 132 212 182 132 212 182 132 212 182 132 212 182 132 212 182 132 212 182 132 
212 182 132 212 182 132 212 182 132 212 182 132 212 182 132 212 182 132 212 182 132 212 182 132 
212 182 132 212 182 132 212 182 132 212 182 132 212 182 132 212 182 132 212 182 132 212 182 132 
212 182 132 212 182 132 212 182 132 214 184 134 212 182 132 176 166 112 179 96 72 197 39 39 
221 65 58 55 14 14 0 0 0 0 0 0 0 0 0 0 0 0 0 0 0 
0 0 0 0 0 0 0 0 0 0 0 0 0 0 0 0 0 0 158 48 40 219 50 48 
191 59 52 166 136 93 186 164 115 218 188 137 212 182 132 212 182 132 212 182 132 212 182 132 
212 182 132 212 182 132 212 182 132 212 182 132 212 182 132 212 182 132 212 182 132 212 182 132 
212 182 132 212 182 132 212 182 132 212 182 132 212 182 132 212 182 132 212 182 132 212 182 132 
212 182 132 212 182 132 212 182 132 212 182 132 212 182 132 212 182 132 212 182 132 212 182 132 
212 182 132 212 182 132 212 182 132 212 182 132 212 182 132 212 182 132 212 182 132 212 182 132 
212 182 132 212 182 132 212 182 132 216 187 136 209 179 129 172 156 110 179 96 72 198 43 43 
219 61 55 78 21 16 0 1 1 0 0 0 0 0 0 0 0 0 0 0 0 
0 0 0 0 0 0 0 0 0 0 0 0 0 0 0 3 3 2 167 56 44 219 50 48 
191 59 52 166 136 93 181 157 110 215 185 135 213 183 133 212 182 132 212 182 132 212 182 132 
212 182 132 212 182 132 212 182 132 212 182 132 212 182 132 212 182 132 212 182 132 212 182 132 
212 182 132 212 182 132 212 182 132 212 182 132 212 182 132 212 182 132 212 182 132 212 182 132 
212 182 132 212 182 132 212 182 132 212 182 132 212 182 132 212 182 132 212 182 132 212 182 132 
212 182 132 212 182 132 212 182 132 212 182 132 212 182 132 212 182 132 212 182 132 212 182 132 
212 182 132 212 182 132 212 182 132 219 188 137 196 170 121 168 151 102 179 96 72 197 39 39 
228 67 60 78 21 16 0 0 0 0 0 0 0 0 0 0 0 0 0 0 0 
0 0 0 0 0 0 0 0 0 0 0 0 0 0 0 3 3 2 175 53 48 204 55 50 
192 56 49 179 132 94 172 152 104 211 181 131 215 185 135 212 182 132 212 182 132 212 182 132 
212 182 132 212 182 132 212 182 132 212 182 132 212 182 132 212 182 132 212 182 132 212 182 132 
212 182 132 212 182 132 212 182 132 212 182 132 212 182 132 212 182 132 212 182 132 212 182 132 
212 182 132 212 182 132 212 182 132 212 182 132 212 182 132 212 182 132 212 182 132 212 182 132 
212 182 132 212 182 132 212 182 132 212 182 132 212 182 132 212 182 132 212 182 132 212 182 132 
212 182 132 212 182 132 212 182 132 219 189 138 195 167 118 168 151 102 179 96 72 197 39 39 
225 64 57 95 29 20 0 1 1 0 0 0 0 0 0 0 0 0 0 0 0 
0 0 0 0 0 0 0 0 0 0 0 0 0 0 0 10 5 5 185 56 50 204 55 50 
191 52 48 179 132 94 168 151 102 205 178 130 216 187 136 212 182 132 212 182 132 212 182 132 
212 182 132 212 182 132 212 182 132 212 182 132 212 182 132 212 182 132 212 182 132 212 182 132 
212 182 132 212 182 132 212 182 132 212 182 132 212 182 132 212 182 132 212 182 132 212 182 132 
212 182 132 212 182 132 212 182 132 212 182 132 212 182 132 212 182 132 212 182 132 212 182 132 
212 182 132 212 182 132 212 182 132 212 182 132 212 182 132 212 182 132 212 182 132 212 182 132 
212 182 132 212 182 132 212 182 132 220 189 138 185 159 112 168 151 102 179 96 72 197 39 39 
228 67 60 95 29 20 0 0 0 0 0 0 0 0 0 0 0 0 0 0 0 
0 0 0 0 0 0 0 0 0 0 0 0 0 0 0 18 9 9 191 59 52 204 55 50 
193 49 45 179 132 94 159 149 99 203 168 122 219 189 138 212 182 132 212 182 132 212 182 132 
212 182 132 212 182 132 212 182 132 212 182 132 212 182 132 212 182 132 212 182 132 212 182 132 
212 182 132 212 182 132 212 182 132 212 182 132 212 182 132 212 182 132 212 182 132 212 182 132 
212 182 132 212 182 132 212 182 132 212 182 132 212 182 132 212 182 132 212 182 132 212 182 132 
212 182 132 212 182 132 212 182 132 212 182 132 212 182 132 212 182 132 212 182 132 212 182 132 
212 182 132 212 182 132 214 183 133 215 185 135 178 153 106 168 151 102 182 83 64 197 39 39 
227 64 57 106 32 24 0 1 1 0 0 0 0 0 0 0 0 0 0 0 0 
0 0 0 0 0 0 0 0 0 0 0 0 0 0 0 18 9 9 191 59 52 204 55 50 
193 49 45 179 132 94 159 149 99 189 165 116 219 189 138 212 182 132 212 182 132 212 182 132 
212 182 132 212 182 132 212 182 132 212 182 132 212 182 132 212 182 132 212 182 132 212 182 132 
212 182 132 212 182 132 212 182 132 212 182 132 212 182 132 212 182 132 212 182 132 212 182 132 
212 182 132 212 182 132 212 182 132 212 182 132 212 182 132 212 182 132 212 182 132 212 182 132 
212 182 132 212 182 132 212 182 132 212 182 132 212 182 132 212 182 132 212 182 132 212 182 132 
212 182 132 212 182 132 215 185 135 209 179 129 173 145 101 172 152 104 182 83 64 193 39 40 
228 67 60 115 31 30 0 0 0 0 0 0 0 0 0 0 0 0 0 0 0 
0 0 0 0 0 0 0 0 0 0 0 0 0 0 0 18 9 9 191 59 52 204 55 50 
194 44 42 180 120 86 168 151 102 185 159 112 219 188 138 212 182 132 212 182 132 212 182 132 
212 182 132 212 182 132 212 182 132 212 182 132 212 182 132 212 182 132 212 182 132 212 182 132 
212 182 132 212 182 132 212 182 132 212 182 132 212 182 132 212 182 132 212 182 132 212 182 132 
212 182 132 212 182 132 212 182 132 212 182 132 212 182 132 212 182 132 212 182 132 212 182 132 
212 182 132 212 182 132 212 182 132 212 182 132 212 182 132 212 182 132 212 182 132 212 182 132 
212 182 132 212 182 132 217 187 137 205 178 130 171 141 98 168 151 102 182 83 64 197 39 39 
225 64 57 110 45 29 0 1 1 0 0 0 0 0 0 0 0 0 0 0 0 
0 0 0 0 0 0 0 0 0 0 0 0 0 1 1 10 5 5 185 56 50 204 55 50 
194 44 42 180 120 86 168 151 102 178 153 106 216 187 136 220 190 139 219 189 138 216 187 136 
214 184 134 213 183 133 212 182 132 212 182 132 212 182 132 212 182 132 212 182 132 212 182 132 
212 182 132 212 182 132 212 182 132 212 182 132 212 182 132 212 182 132 212 182 132 212 182 132 
212 182 132 212 182 132 212 182 132 212 182 132 212 182 132 212 182 132 212 182 132 212 182 132 
212 182 132 212 182 132 212 182 132 212 182 132 212 182 132 212 182 132 213 183 133 215 185 135 
218 188 137 219 188 138 225 199 144 196 170 121 167 139 95 172 152 104 187 72 58 193 39 40 
230 66 59 95 29 20 0 0 0 0 0 0 0 0 0 0 0 0 0 0 0 
0 0 0 0 0 0 0 0 0 0 0 0 0 0 0 41 16 15 204 60 54 196 48 45 
194 57 51 171 141 98 172 152 104 196 155 98 195 161 107 190 160 111 196 170 121 205 178 130 
211 181 131 217 186 134 219 189 138 219 189 138 218 188 137 216 187 136 215 184 133 213 183 133 
212 182 132 212 182 132 212 182 132 212 182 132 212 182 132 212 182 132 212 182 132 212 182 132 
212 182 132 212 182 132 212 182 132 212 182 132 212 182 132 212 182 132 212 182 132 213 183 133 
214 183 133 217 186 134 217 187 137 219 189 138 220 189 138 218 188 137 214 184 134 209 179 129 
203 168 122 195 167 118 190 160 111 195 161 107 184 146 95 168 167 112 179 96 72 197 39 39 
219 61 55 144 52 37 3 3 2 0 0 0 0 0 0 0 0 0 0 0 0 
0 0 0 0 0 0 0 0 0 0 0 0 0 1 1 125 45 34 227 64 57 197 39 39 
182 83 64 172 156 110 175 149 104 137 116 91 156 131 97 184 146 95 196 155 98 196 155 98 
196 155 98 190 160 111 190 160 111 195 167 118 196 170 121 205 178 130 211 181 131 215 185 135 
217 187 137 218 188 137 219 189 138 219 189 138 219 189 138 219 189 138 219 188 137 219 188 137 
219 188 137 219 188 137 219 189 138 219 189 138 219 189 138 219 188 137 218 188 137 216 187 136 
213 183 133 209 180 131 203 168 122 196 170 121 195 164 114 190 160 111 185 153 107 196 155 98 
196 155 98 196 155 98 175 143 96 137 116 91 156 131 97 181 157 110 179 132 94 193 49 45 
198 54 49 211 61 57 41 16 15 0 0 0 0 0 0 0 0 0 0 0 0 
0 0 0 0 0 0 0 0 0 0 0 0 0 0 0 125 45 34 225 64 57 194 36 38 
180 120 86 186 164 115 180 150 102 8 26 73 8 26 73 49 63 71 68 80 81 115 103 79 
154 121 82 166 136 93 184 146 95 196 155 98 196 155 98 196 155 98 196 155 98 195 161 107 
190 160 111 195 164 114 195 164 114 195 167 118 195 167 118 203 168 122 196 170 121 203 168 122 
196 170 121 203 168 122 196 170 121 195 167 118 195 164 114 195 164 114 195 164 114 195 161 107 
195 161 107 196 155 98 196 155 98 196 155 98 184 146 95 174 140 93 154 121 82 137 116 91 
89 88 84 49 63 71 8 26 73 0 3 63 89 88 84 208 165 115 172 156 110 196 79 64 
197 39 39 208 61 55 41 16 15 0 0 0 0 0 0 0 0 0 0 0 0 
0 0 0 0 0 0 0 0 0 0 0 0 0 1 1 125 45 34 230 58 54 193 49 45 
154 121 82 195 164 114 115 103 79 46 119 148 46 119 148 18 84 120 18 84 120 9 54 88 
9 54 88 26 58 82 49 63 71 49 63 71 68 80 81 115 103 79 115 103 79 156 133 88 
167 139 95 174 140 93 166 136 93 170 139 94 174 140 93 174 140 93 184 146 95 175 143 96 
184 146 95 175 143 96 174 140 93 174 140 93 166 136 93 170 139 94 170 139 94 156 133 88 
137 116 91 115 103 79 89 88 84 68 80 81 49 63 71 48 77 87 26 58 82 9 54 88 
18 84 120 18 84 120 46 119 148 46 119 148 48 77 87 196 155 98 159 149 99 167 56 44 
212 47 46 204 60 54 41 16 15 0 0 0 0 0 0 0 0 0 0 0 0 
0 0 0 0 0 0 0 0 0 0 0 0 0 0 0 115 31 30 219 50 48 200 117 90 
185 159 112 181 109 75 49 63 71 71 161 191 185 255 255 185 255 255 163 244 247 163 244 247 
113 197 216 113 197 216 71 161 191 71 161 191 46 119 148 46 119 148 18 84 120 26 58 82 
8 26 73 48 77 87 48 77 87 48 77 87 68 80 81 68 80 81 68 80 81 68 80 81 
68 80 81 68 80 81 68 80 81 48 77 87 48 77 87 48 77 87 26 58 82 9 54 88 
26 58 82 46 119 148 46 119 148 65 147 174 71 161 191 113 197 216 113 197 216 163 244 247 
163 244 247 163 244 247 185 255 255 163 244 247 18 84 120 135 90 58 166 129 85 200 143 104 
204 60 54 198 54 49 32 11 10 0 0 0 0 0 0 0 0 0 0 0 0 
0 0 0 0 0 0 0 0 0 0 0 0 0 1 1 115 31 30 212 47 46 218 143 107 
222 212 152 196 155 98 26 58 82 8 26 73 65 147 174 163 244 247 185 255 255 185 255 255 
185 255 255 185 255 255 185 255 255 185 255 255 185 255 255 185 255 255 185 255 255 163 244 247 
71 161 191 8 26 73 179 163 123 179 163 123 179 163 123 179 163 123 179 163 123 179 163 123 
179 163 123 179 163 123 179 163 123 179 163 123 214 184 134 48 77 87 18 84 120 163 244 247 
163 244 247 185 255 255 185 255 255 185 255 255 185 255 255 185 255 255 185 255 255 185 255 255 
185 255 255 185 255 255 113 197 216 18 84 120 0 3 63 115 103 79 241 198 135 223 207 149 
203 67 58 194 44 42 32 11 10 0 0 0 0 0 0 0 0 0 0 0 0 
0 0 0 0 0 0 0 0 0 0 0 0 0 0 0 115 31 30 219 50 48 208 165 115 
219 198 144 242 203 142 197 176 127 89 88 84 8 26 73 8 26 73 18 84 120 65 147 174 
65 147 174 71 161 191 71 161 191 71 161 191 65 147 174 65 147 174 65 147 174 71 161 191 
46 119 148 89 88 84 242 203 142 232 196 138 229 193 136 224 189 134 229 193 136 224 189 134 
229 193 136 224 189 134 229 193 136 224 189 134 250 206 139 181 157 110 18 84 120 71 161 191 
65 147 174 65 147 174 65 147 174 71 161 191 71 161 191 71 161 191 71 161 191 65 147 174 
46 119 148 9 54 88 0 3 63 26 58 82 156 131 97 219 198 144 229 193 136 212 197 142 
212 90 70 193 39 40 32 11 10 0 0 0 0 0 0 0 0 0 0 0 0 
0 0 0 0 0 0 0 0 0 0 0 0 0 0 0 106 32 24 227 64 57 203 168 122 
214 194 140 205 178 130 232 196 138 250 206 139 197 176 127 137 116 91 49 63 71 8 26 73 
26 58 82 26 58 82 26 58 82 49 63 71 68 80 81 89 88 84 115 103 79 115 103 79 
156 131 97 232 196 138 224 189 134 211 181 131 212 182 132 214 183 133 212 182 132 214 183 133 
212 182 132 214 183 133 212 182 132 214 183 133 209 180 131 242 203 142 203 168 122 137 116 91 
115 103 79 89 88 84 68 80 81 48 77 87 49 63 71 26 58 82 26 58 82 8 26 73 
9 54 88 68 80 81 172 156 110 229 193 136 250 206 139 217 186 134 209 180 131 215 207 148 
200 117 90 194 36 38 32 11 10 0 0 0 0 0 0 0 0 0 0 0 0 
0 0 0 0 0 0 0 0 0 0 0 0 0 0 0 102 20 19 228 67 60 212 182 132 
213 188 135 213 184 133 212 182 132 211 181 131 229 193 136 250 206 139 232 196 138 219 186 133 
214 182 131 214 182 131 224 189 134 229 193 136 241 198 135 242 203 142 242 203 142 242 203 142 
241 198 135 215 184 133 209 180 131 212 182 132 212 182 132 212 182 132 212 182 132 212 182 132 
212 182 132 212 182 132 212 182 132 212 182 132 211 181 131 209 180 131 224 189 134 242 203 142 
242 203 142 250 206 139 242 203 142 241 198 135 219 186 133 219 186 133 212 180 130 214 182 131 
219 186 133 250 206 139 242 203 142 219 186 133 211 181 131 212 182 132 212 182 132 215 207 148 
221 114 88 193 39 40 27 10 9 0 0 0 0 0 0 0 0 0 0 0 0 
0 0 0 0 0 0 0 0 0 0 0 0 0 0 0 102 20 19 235 88 73 213 188 135 
213 188 135 212 182 132 212 182 132 212 182 132 212 182 132 211 181 131 219 186 133 219 186 133 
224 189 134 219 186 133 219 186 133 215 184 133 214 183 133 214 182 131 214 182 131 212 182 132 
212 182 132 212 182 132 212 182 132 212 182 132 212 182 132 212 182 132 212 182 132 212 182 132 
212 182 132 212 182 132 212 182 132 212 182 132 212 182 132 212 182 132 212 182 132 212 182 132 
214 182 131 212 182 132 214 182 131 215 184 133 219 186 133 219 186 133 224 189 134 224 189 134 
219 186 133 212 183 132 212 182 132 212 182 132 212 182 132 212 182 132 212 182 132 213 202 144 
218 143 107 193 39 40 27 10 9 0 0 0 0 0 0 0 0 0 0 0 0 
0 0 0 0 0 0 0 0 0 0 0 0 0 0 0 102 20 19 235 88 73 212 197 142 
213 184 133 212 182 132 212 182 132 212 182 132 212 182 132 212 182 132 212 182 132 212 182 132 
212 182 132 212 182 132 212 182 132 212 182 132 212 182 132 212 182 132 212 182 132 212 182 132 
212 182 132 212 182 132 212 182 132 212 182 132 212 182 132 212 182 132 212 182 132 212 182 132 
212 182 132 212 182 132 212 182 132 212 182 132 212 182 132 212 182 132 212 182 132 212 182 132 
212 182 132 212 182 132 212 182 132 212 182 132 212 182 132 212 182 132 212 182 132 212 182 132 
212 182 132 212 182 132 212 182 132 212 182 132 212 182 132 212 182 132 212 182 132 213 202 144 
218 143 107 194 44 42 27 10 9 0 0 0 0 0 0 0 0 0 0 0 0 
0 0 0 0 0 0 0 0 0 0 0 0 0 0 0 102 20 19 235 88 73 214 194 140 
214 186 135 212 182 132 212 182 132 212 182 132 212 182 132 212 182 132 212 182 132 212 182 132 
212 182 132 212 182 132 212 182 132 212 182 132 212 182 132 212 182 132 212 182 132 212 182 132 
212 182 132 212 182 132 212 182 132 212 182 132 212 182 132 212 182 132 212 182 132 212 182 132 
212 182 132 212 182 132 212 182 132 212 182 132 212 182 132 212 182 132 212 182 132 212 182 132 
212 182 132 212 182 132 212 182 132 212 182 132 212 182 132 212 182 132 212 182 132 212 182 132 
212 182 132 212 182 132 212 182 132 212 182 132 212 182 132 212 182 132 211 181 131 215 207 148 
218 143 107 193 39 40 27 10 9 0 0 0 0 0 0 0 0 0 0 0 0 
0 0 0 0 0 0 0 0 0 0 0 0 0 0 0 95 29 20 225 64 57 203 168 122 
219 198 144 211 181 131 212 182 132 212 182 132 212 182 132 212 182 132 212 182 132 212 182 132 
212 182 132 212 182 132 212 182 132 212 182 132 212 182 132 212 182 132 212 182 132 212 182 132 
212 182 132 212 182 132 212 182 132 212 182 132 212 182 132 212 182 132 212 182 132 212 182 132 
212 182 132 212 182 132 212 182 132 212 182 132 212 182 132 212 182 132 212 182 132 212 182 132 
212 182 132 212 182 132 212 182 132 212 182 132 212 182 132 212 182 132 212 182 132 212 182 132 
212 182 132 212 182 132 212 182 132 212 182 132 212 182 132 212 182 132 212 182 132 215 207 148 
221 114 88 185 34 35 27 10 9 0 0 0 0 0 0 0 0 0 0 0 0 
0 0 0 0 0 0 0 0 0 0 0 0 0 1 1 106 32 24 231 46 46 196 92 73 
222 212 152 219 188 138 212 182 132 212 182 132 212 182 132 212 182 132 212 182 132 212 182 132 
212 182 132 212 182 132 212 182 132 212 182 132 212 182 132 212 182 132 212 182 132 212 182 132 
212 182 132 212 182 132 212 182 132 212 182 132 212 182 132 212 182 132 212 182 132 212 182 132 
212 182 132 212 182 132 212 182 132 212 182 132 212 182 132 212 182 132 212 182 132 212 182 132 
212 182 132 212 182 132 212 182 132 212 182 132 212 182 132 212 182 132 212 182 132 212 182 132 
212 182 132 212 182 132 212 182 132 212 182 132 211 181 131 214 183 133 223 207 149 203 168 122 
198 43 43 194 53 49 27 10 9 0 0 0 0 0 0 0 0 0 0 0 0 
0 0 0 0 0 0 0 0 0 0 0 0 0 0 0 95 29 20 225 64 57 185 34 35 
184 146 95 209 193 138 219 189 138 215 185 135 211 181 131 212 182 132 212 182 132 212 182 132 
212 182 132 212 182 132 212 182 132 212 182 132 212 182 132 212 182 132 212 182 132 212 182 132 
212 182 132 212 182 132 212 182 132 212 182 132 212 182 132 212 182 132 212 182 132 212 182 132 
212 182 132 212 182 132 212 182 132 212 182 132 212 182 132 212 182 132 212 182 132 212 182 132 
212 182 132 212 182 132 212 182 132 212 182 132 212 182 132 212 182 132 212 182 132 212 182 132 
212 182 132 212 182 132 212 182 132 212 182 132 219 189 138 218 188 137 188 178 124 182 83 64 
198 35 37 194 57 51 18 9 9 0 0 0 0 0 0 0 0 0 0 0 0 
0 0 0 0 0 0 0 0 0 0 0 0 0 1 1 95 29 20 228 67 60 198 43 43 
167 56 44 159 149 99 195 167 118 216 187 136 219 188 138 211 181 131 212 182 132 212 182 132 
212 182 132 212 182 132 212 182 132 212 182 132 212 182 132 212 182 132 212 182 132 212 182 132 
212 182 132 212 182 132 212 182 132 212 182 132 212 182 132 212 182 132 212 182 132 212 182 132 
212 182 132 212 182 132 212 182 132 212 182 132 212 182 132 212 182 132 212 182 132 212 182 132 
212 182 132 212 182 132 212 182 132 212 182 132 212 182 132 212 182 132 212 182 132 212 182 132 
212 182 132 211 181 131 214 184 134 220 189 138 205 178 130 186 164 115 154 121 82 185 34 35 
205 57 52 191 55 49 18 9 9 0 0 0 0 0 0 0 0 0 0 0 0 
0 0 0 0 0 0 0 0 0 0 0 0 0 0 0 106 32 24 228 67 60 198 54 49 
185 34 35 155 93 65 168 167 112 174 145 101 211 181 131 220 190 139 212 183 132 212 182 132 
212 182 132 212 182 132 212 182 132 212 182 132 212 182 132 212 182 132 212 182 132 212 182 132 
212 182 132 212 182 132 212 182 132 212 182 132 212 182 132 212 182 132 212 182 132 212 182 132 
212 182 132 212 182 132 212 182 132 212 182 132 212 182 132 212 182 132 212 182 132 212 182 132 
212 182 132 212 182 132 212 182 132 212 182 132 212 182 132 212 182 132 212 182 132 212 182 132 
211 181 131 216 187 136 220 189 138 195 164 114 175 149 104 159 149 99 158 48 40 204 45 43 
200 57 51 200 57 51 18 9 9 0 0 0 0 0 0 0 0 0 0 0 0 
0 0 0 0 0 0 0 0 0 0 0 0 0 1 1 78 21 16 225 64 57 189 55 48 
212 47 46 141 41 33 156 133 88 181 157 110 167 139 95 196 170 121 220 190 139 214 184 134 
211 181 131 212 182 132 212 182 132 212 182 132 212 182 132 212 182 132 212 182 132 212 182 132 
212 182 132 212 182 132 212 182 132 212 182 132 212 182 132 212 182 132 212 182 132 212 182 132 
212 182 132 212 182 132 212 182 132 212 182 132 212 182 132 212 182 132 212 182 132 212 182 132 
212 182 132 212 182 132 212 182 132 212 182 132 212 182 132 212 182 132 212 182 132 211 181 131 
219 188 137 213 184 133 185 153 107 167 139 95 172 156 110 135 90 58 185 34 35 198 58 51 
212 60 55 175 53 48 10 5 5 0 0 0 0 0 0 0 0 0 0 0 0 
0 0 0 0 0 0 0 0 0 0 0 0 0 0 0 3 3 2 185 61 53 208 59 53 
198 58 51 185 34 35 110 45 29 172 156 110 175 149 104 166 136 93 195 164 114 219 190 138 
215 185 135 211 181 131 212 182 132 212 182 132 212 182 132 212 182 132 212 182 132 212 182 132 
212 182 132 212 182 132 212 182 132 212 182 132 212 182 132 212 182 132 212 182 132 212 182 132 
212 182 132 212 182 132 212 182 132 212 182 132 212 182 132 212 182 132 212 182 132 212 182 132 
212 182 132 212 182 132 212 182 132 212 182 132 212 182 132 212 182 132 212 182 132 220 190 139 
211 181 131 174 145 100 166 136 93 189 165 116 135 90 58 139 26 24 212 47 46 185 56 50 
238 69 60 95 29 20 0 1 1 0 0 0 0 0 0 0 0 0 0 0 0 
0 0 0 0 0 0 0 0 0 0 0 0 0 0 0 0 1 1 115 31 30 227 64 57 
189 55 48 219 61 55 120 25 16 117 63 39 189 165 116 172 145 100 166 136 93 185 159 112 
219 189 138 217 186 134 211 181 131 212 182 132 212 182 132 212 182 132 212 182 132 212 182 132 
212 182 132 212 182 132 212 182 132 212 182 132 212 182 132 212 182 132 212 182 132 212 182 132 
212 182 132 212 182 132 212 182 132 212 182 132 212 182 132 212 182 132 212 182 132 212 182 132 
212 182 132 212 182 132 212 182 132 212 182 132 212 182 132 212 182 132 220 190 139 209 179 129 
171 141 98 166 136 93 189 165 116 156 133 88 90 16 4 190 42 41 204 60 54 200 57 51 
198 58 51 27 10 9 0 0 0 0 0 0 0 0 0 0 0 0 0 0 0 
0 0 0 0 0 0 0 0 0 0 0 0 0 0 0 0 0 0 55 14 14 221 65 58 
192 55 49 198 57 51 198 54 49 93 3 4 135 90 58 197 176 127 171 141 98 166 136 93 
181 157 110 220 189 138 215 185 135 211 181 131 212 182 132 212 182 132 212 182 132 212 182 132 
212 182 132 212 182 132 212 182 132 212 182 132 212 182 132 212 182 132 212 182 132 212 182 132 
212 182 132 212 182 132 212 182 132 212 182 132 212 182 132 212 182 132 212 182 132 212 182 132 
212 182 132 212 182 132 212 182 132 212 182 132 211 181 131 220 190 139 209 179 129 167 139 95 
166 136 93 185 159 112 181 157 110 89 23 8 139 26 24 216 63 57 189 53 48 219 61 55 
158 48 40 0 0 0 0 0 0 0 0 0 0 0 0 0 0 0 0 0 0 
0 0 0 0 0 0 0 0 0 0 0 0 0 0 0 0 0 0 41 16 15 208 61 55 
198 54 49 191 55 49 214 61 56 141 41 33 63 1 0 154 121 82 189 165 116 171 141 98 
166 136 93 185 159 112 219 190 138 214 184 134 212 182 132 212 182 132 212 182 132 212 182 132 
212 182 132 212 182 132 212 182 132 212 182 132 212 182 132 212 182 132 212 182 132 212 182 132 
212 182 132 212 182 132 212 182 132 212 182 132 212 182 132 212 182 132 212 182 132 212 182 132 
212 182 132 212 182 132 212 182 132 211 181 131 220 189 138 209 179 129 170 139 94 166 136 93 
178 153 106 186 164 115 110 45 29 93 3 4 198 58 51 198 57 51 192 55 49 225 64 57 
125 45 34 0 0 0 0 0 0 0 0 0 0 0 0 0 0 0 0 0 0 
0 0 0 0 0 0 0 0 0 0 0 0 0 0 0 0 0 0 27 10 9 198 58 51 
200 57 51 192 55 49 198 57 51 202 57 51 90 16 4 90 16 4 172 145 100 185 159 112 
171 141 98 166 136 93 189 165 116 220 190 139 212 183 132 212 182 132 212 182 132 212 182 132 
212 182 132 212 182 132 212 182 132 212 182 132 212 182 132 212 182 132 212 182 132 212 182 132 
212 182 132 212 182 132 212 182 132 212 182 132 212 182 132 212 182 132 212 182 132 212 182 132 
212 182 132 212 182 132 211 181 131 218 188 137 213 183 133 173 142 99 166 136 93 174 145 101 
189 165 116 135 90 58 63 1 0 154 44 34 214 61 56 191 55 49 192 55 49 225 64 57 
115 31 30 0 1 1 0 0 0 0 0 0 0 0 0 0 0 0 0 0 0 
0 0 0 0 0 0 0 0 0 0 0 0 0 0 0 0 0 0 10 5 5 185 56 50 
205 57 52 192 55 49 191 55 49 214 61 56 154 44 34 63 1 0 118 54 34 186 164 115 
174 145 101 171 141 98 166 136 93 203 168 122 220 190 139 211 181 131 212 182 132 212 182 132 
212 182 132 212 182 132 212 182 132 212 182 132 212 182 132 212 182 132 212 182 132 212 182 132 
212 182 132 212 182 132 212 182 132 212 182 132 212 182 132 212 182 132 212 182 132 212 182 132 
212 182 132 212 182 132 215 185 135 216 187 136 180 150 102 166 136 93 173 144 100 189 165 116 
154 121 82 73 2 0 100 22 14 194 57 51 198 57 51 192 55 49 192 55 49 228 67 60 
95 29 20 0 0 0 0 0 0 0 0 0 0 0 0 0 0 0 0 0 0 
0 0 0 0 0 0 0 0 0 0 0 0 0 0 0 0 0 0 0 1 1 175 53 48 
208 59 53 192 55 49 192 55 49 198 57 51 194 57 51 100 27 12 73 2 0 154 121 82 
189 165 116 173 142 99 170 139 94 171 141 98 211 181 131 218 188 137 211 181 131 212 182 132 
212 182 132 212 182 132 212 182 132 212 182 132 212 182 132 212 182 132 212 182 132 212 182 132 
212 182 132 212 182 132 212 182 132 212 182 132 212 182 132 212 182 132 212 182 132 212 182 132 
212 182 132 212 182 132 220 190 139 190 160 111 166 136 93 172 145 100 174 145 101 185 159 112 
118 54 34 63 1 0 154 44 34 214 61 56 191 55 49 192 55 49 192 55 49 225 64 57 
95 29 20 0 1 1 0 0 0 0 0 0 0 0 0 0 0 0 0 0 0 
0 0 0 0 0 0 0 0 0 0 0 0 0 0 0 0 0 0 0 0 0 158 48 40 
214 61 56 192 55 49 192 55 49 189 53 48 216 63 57 154 44 34 63 1 0 118 54 34 
185 159 112 174 145 101 174 145 101 166 136 93 185 153 107 219 189 138 214 183 133 212 182 132 
212 182 132 212 182 132 212 182 132 212 182 132 212 182 132 212 182 132 212 182 132 212 182 132 
212 182 132 212 182 132 212 182 132 212 182 132 212 182 132 212 182 132 212 182 132 212 182 132 
211 181 131 220 189 138 197 176 127 166 136 93 171 141 98 173 144 100 186 164 115 154 121 82 
73 2 0 100 27 12 194 57 51 198 57 51 192 55 49 192 55 49 195 55 49 216 63 57 
78 21 16 0 0 0 0 0 0 0 0 0 0 0 0 0 0 0 0 0 0 
0 0 0 0 0 0 0 0 0 0 0 0 0 0 0 0 0 0 0 0 0 154 44 34 
219 61 55 192 55 49 192 55 49 192 55 49 198 57 51 194 57 51 100 27 12 79 15 2 
166 129 85 181 157 110 173 144 100 173 144 100 166 136 93 195 167 118 220 190 139 211 181 131 
212 182 132 212 182 132 212 182 132 212 182 132 212 182 132 212 182 132 212 182 132 212 182 132 
212 182 132 212 182 132 212 182 132 212 182 132 212 182 132 212 182 132 212 182 132 212 182 132 
214 184 134 216 187 136 180 150 102 167 139 95 174 145 101 173 144 100 189 165 116 117 63 39 
63 1 0 154 44 34 216 63 57 191 55 49 192 55 49 192 55 49 195 55 49 216 63 57 
55 14 14 0 1 1 0 0 0 0 0 0 0 0 0 0 0 0 0 0 0 
0 0 0 0 0 0 0 0 0 0 0 0 0 0 0 0 0 0 0 1 1 125 45 34 
225 64 57 192 55 49 192 55 49 192 55 49 192 55 49 211 61 57 154 44 34 63 1 0 
135 90 58 189 165 116 173 144 100 173 144 100 167 139 95 174 145 101 213 183 133 215 185 135 
212 182 132 212 182 132 212 182 132 212 182 132 212 182 132 212 182 132 212 182 132 212 182 132 
212 182 132 212 182 132 212 182 132 212 182 132 212 182 132 212 182 132 212 182 132 212 182 132 
220 190 139 189 165 116 166 136 93 173 144 100 173 144 100 178 153 106 174 145 100 95 29 20 
90 16 4 192 56 49 200 57 51 192 55 49 192 55 49 192 55 49 198 57 51 204 60 54 
41 16 15 0 0 0 0 0 0 0 0 0 0 0 0 0 0 0 0 0 0 
0 0 0 0 0 0 0 0 0 0 0 0 0 0 0 0 0 0 0 0 0 106 32 24 
228 67 60 192 55 49 192 55 49 192 55 49 192 55 49 200 57 51 192 56 49 93 3 4 
117 63 39 186 164 115 173 144 100 173 144 100 173 144 100 166 136 93 195 167 118 220 190 139 
212 182 132 212 182 132 212 182 132 212 182 132 212 182 132 212 182 132 212 182 132 212 182 132 
212 182 132 212 182 132 212 182 132 212 182 132 212 182 132 212 182 132 212 182 132 215 184 133 
213 183 133 174 145 101 167 139 95 173 144 100 173 144 100 181 157 110 166 129 85 73 2 0 
141 41 33 214 61 56 191 55 49 192 55 49 192 55 49 192 55 49 205 57 52 185 56 50 
18 9 9 0 0 0 0 0 0 0 0 0 0 0 0 0 0 0 0 0 0 
0 0 0 0 0 0 0 0 0 0 0 0 0 0 0 0 0 0 0 1 1 78 21 16 
225 64 57 192 55 49 192 55 49 192 55 49 192 55 49 191 55 49 212 60 55 139 26 24 
97 39 22 181 157 110 175 149 104 173 144 100 173 144 100 167 139 95 175 149 104 217 188 137 
219 189 138 216 187 136 216 187 136 216 187 136 216 187 136 216 187 136 216 187 136 216 187 136 
216 187 136 216 187 136 216 187 136 216 187 136 216 187 136 216 187 136 216 187 136 225 199 144 
196 170 121 166 136 93 173 144 100 173 144 100 173 144 100 189 165 116 135 90 58 90 16 4 
191 52 48 200 57 51 192 55 49 192 55 49 192 55 49 192 55 49 212 60 55 167 56 44 
0 0 0 0 0 0 0 0 0 0 0 0 0 0 0 0 0 0 0 0 0 
0 0 0 0 0 0 0 0 0 0 0 0 0 0 0 0 0 0 0 0 0 70 17 11 
216 63 57 195 55 49 192 55 49 192 55 49 192 55 49 192 55 49 200 57 51 190 42 41 
110 45 29 167 139 95 175 149 104 173 144 100 173 144 100 171 141 98 172 145 100 212 184 133 
225 199 144 218 190 139 218 190 139 218 190 139 218 190 139 218 190 139 218 190 139 218 190 139 
218 190 139 218 190 139 218 190 139 218 190 139 218 190 139 218 190 139 219 190 138 225 199 144 
186 164 115 166 136 93 173 144 100 173 144 100 173 144 100 189 165 116 135 90 58 120 25 16 
214 61 56 191 55 49 192 55 49 192 55 49 192 55 49 192 55 49 219 61 55 158 48 40 
0 0 0 0 0 0 0 0 0 0 0 0 0 0 0 0 0 0 0 0 0 
0 0 0 0 0 0 0 0 0 0 0 0 0 0 0 0 0 0 0 0 0 41 16 15 
208 61 55 198 57 51 192 55 49 192 55 49 192 55 49 192 55 49 192 55 49 196 48 45 
167 56 44 172 156 110 178 153 106 173 142 99 173 144 100 178 153 106 178 153 106 117 63 39 
100 22 14 100 27 12 100 27 14 100 27 14 100 27 14 100 27 14 100 27 14 100 27 14 
100 27 14 100 27 14 100 27 14 100 27 14 100 27 14 100 27 14 100 27 12 100 22 14 
154 121 82 186 164 115 173 142 99 173 144 100 172 145 100 186 164 115 154 121 82 185 34 35 
200 57 51 192 55 49 192 55 49 192 55 49 192 55 49 192 55 49 225 64 57 125 45 34 
0 0 0 0 0 0 0 0 0 0 0 0 0 0 0 0 0 0 0 0 0 
0 0 0 0 0 0 0 0 0 0 0 0 0 0 0 0 0 0 0 0 0 3 3 2 
185 56 50 205 57 52 192 55 49 192 55 49 192 55 49 192 55 49 192 55 49 205 57 52 
169 47 39 155 93 65 188 178 124 178 153 106 171 141 98 196 170 121 135 90 58 63 1 0 
110 45 29 117 63 39 118 54 34 118 54 34 118 54 34 118 54 34 118 54 34 118 54 34 
118 54 34 118 54 34 118 54 34 118 54 34 118 54 34 118 54 34 117 63 39 93 3 4 
79 15 2 185 159 112 178 153 106 173 142 99 189 165 116 159 149 99 144 52 37 204 45 43 
189 55 48 192 55 49 192 55 49 192 55 49 192 55 49 192 55 49 228 67 60 95 29 20 
0 1 1 0 0 0 0 0 0 0 0 0 0 0 0 0 0 0 0 0 0 
0 0 0 0 0 0 0 0 0 0 0 0 0 0 0 0 0 0 0 0 0 0 1 1 
144 52 37 219 61 55 192 55 49 192 55 49 192 55 49 192 55 49 192 55 49 205 57 52 
169 47 39 73 2 0 117 63 39 181 157 110 197 176 127 170 139 94 73 2 0 117 63 39 
225 199 144 222 212 152 225 199 144 225 199 144 225 199 144 225 199 144 225 199 144 225 199 144 
225 199 144 225 199 144 225 199 144 225 199 144 223 207 149 242 203 142 222 212 152 180 150 102 
73 2 0 118 54 34 197 176 127 196 170 121 154 121 82 79 15 2 100 22 14 204 60 54 
194 57 51 192 55 49 192 55 49 192 55 49 192 55 49 192 55 49 221 65 58 78 21 16 
0 0 0 0 0 0 0 0 0 0 0 0 0 0 0 0 0 0 0 0 0 
0 0 0 0 0 0 0 0 0 0 0 0 0 0 0 0 0 0 0 0 0 0 0 0 
115 31 30 230 66 59 191 55 49 192 55 49 192 55 49 192 55 49 192 55 49 197 39 39 
200 117 90 156 133 88 73 2 0 100 22 14 171 141 98 110 45 29 106 32 24 186 164 115 
189 165 116 220 190 139 215 185 135 214 184 134 215 185 135 214 184 134 215 185 135 214 184 134 
215 185 135 214 184 134 215 185 135 214 184 134 214 183 133 218 190 139 205 178 130 189 165 116 
154 121 82 73 2 0 154 121 82 135 90 58 73 2 0 118 54 34 174 145 100 203 67 58 
193 49 45 192 55 49 192 55 49 192 55 49 192 55 49 198 57 51 204 60 54 32 11 10 
0 1 1 0 0 0 0 0 0 0 0 0 0 0 0 0 0 0 0 0 0 
0 0 0 0 0 0 0 0 0 0 0 0 0 0 0 0 0 0 0 0 0 3 3 2 
78 21 16 228 67 60 192 55 49 192 55 49 192 55 49 192 55 49 191 52 48 194 44 42 
166 129 85 188 178 124 178 153 106 118 54 34 73 2 0 100 27 12 181 157 110 178 153 106 
175 149 104 214 183 133 214 183 133 212 182 132 212 182 132 212 182 132 212 182 132 212 182 132 
212 182 132 212 182 132 212 182 132 212 182 132 212 182 132 220 189 138 195 167 118 166 136 93 
188 178 124 155 93 65 73 2 0 90 16 4 155 93 65 188 178 124 176 166 112 182 83 64 
197 39 39 192 55 49 192 55 49 192 55 49 192 55 49 212 60 55 167 56 44 0 1 1 
0 0 0 0 0 0 0 0 0 0 0 0 0 0 0 0 0 0 0 0 0 
0 0 0 0 0 0 0 0 0 0 0 0 0 0 0 0 0 0 0 0 0 0 0 0 
32 11 10 208 61 55 198 54 49 192 55 49 192 55 49 192 55 49 194 44 42 187 72 58 
175 149 104 172 145 100 181 157 110 186 164 115 135 90 58 166 136 93 181 157 110 170 139 94 
173 142 99 209 179 129 217 186 134 212 183 132 212 183 132 212 183 132 212 184 133 213 184 133 
213 184 133 212 183 132 212 183 132 212 183 132 212 183 132 219 189 138 190 160 111 166 136 93 
174 145 101 185 159 112 135 90 58 166 129 85 188 178 124 173 142 99 172 156 110 180 120 86 
197 39 39 191 55 49 192 55 49 192 55 49 191 55 49 230 66 59 125 45 34 0 0 0 
0 0 0 0 0 0 0 0 0 0 0 0 0 0 0 0 0 0 0 0 0 
0 0 0 0 0 0 0 0 0 0 0 0 0 0 0 0 0 0 0 0 0 0 0 0 
0 1 1 175 53 48 219 61 55 191 55 49 192 55 49 192 55 49 197 39 39 179 96 72 
168 167 112 173 144 100 173 142 99 174 145 101 189 165 116 178 153 106 171 141 98 173 144 100 
166 136 93 203 186 132 222 212 152 213 202 144 213 202 144 213 202 144 212 197 142 212 197 142 
212 197 142 212 197 142 213 202 144 213 202 144 215 207 148 215 207 148 181 157 110 167 139 95 
173 142 99 173 145 101 186 164 115 181 157 110 171 141 98 173 144 100 172 152 104 175 143 96 
191 59 52 193 49 45 192 55 49 192 55 49 192 55 49 228 67 60 78 21 16 0 0 0 
0 0 0 0 0 0 0 0 0 0 0 0 0 0 0 0 0 0 0 0 0 
0 0 0 0 0 0 0 0 0 0 0 0 0 0 0 0 0 0 0 0 0 0 0 0 
0 0 0 106 32 24 238 69 60 192 55 49 192 55 49 193 49 45 192 56 49 172 152 104 
172 156 110 173 142 99 173 144 100 173 144 100 173 144 100 173 144 100 173 144 100 172 156 110 
168 151 102 179 132 94 200 117 90 200 117 90 196 92 73 196 92 73 196 92 73 196 92 73 
196 92 73 196 92 73 196 92 73 196 92 73 200 117 90 200 117 90 174 145 100 168 167 112 
173 145 101 173 144 100 173 142 99 173 144 100 173 144 100 173 144 100 173 142 99 168 167 112 
181 109 75 198 35 37 192 55 49 189 53 48 219 61 55 194 57 51 10 5 5 0 0 0 
0 0 0 0 0 0 0 0 0 0 0 0 0 0 0 0 0 0 0 0 0 
0 0 0 0 0 0 0 0 0 0 0 0 0 0 0 0 0 0 0 0 0 0 0 0 
0 0 0 3 3 2 167 56 44 230 66 59 189 53 48 191 52 48 193 49 45 181 109 75 
172 156 110 172 152 104 173 142 99 173 144 100 173 142 99 173 145 101 168 167 112 179 132 94 
182 83 64 197 39 39 186 31 34 186 31 34 185 34 35 194 36 38 185 34 35 194 36 38 
185 34 35 194 36 38 185 34 35 194 36 38 186 31 34 186 31 34 194 53 49 181 109 75 
172 152 104 172 156 110 173 142 99 173 144 100 173 144 100 173 142 99 168 167 112 173 142 99 
187 72 58 194 44 42 189 53 48 205 57 52 238 69 60 55 14 14 0 0 0 0 0 0 
0 0 0 0 0 0 0 0 0 0 0 0 0 0 0 0 0 0 0 0 0 
0 0 0 0 0 0 0 0 0 0 0 0 0 0 0 0 0 0 0 0 0 0 0 0 
0 0 0 0 0 0 10 5 5 175 53 48 238 69 60 191 55 49 191 52 48 198 35 37 
182 83 64 172 156 110 172 156 110 173 142 99 172 152 104 168 167 112 179 96 72 194 44 42 
198 35 37 191 52 48 192 56 49 192 55 49 192 55 49 192 55 49 192 55 49 192 55 49 
192 55 49 192 55 49 192 55 49 192 55 49 192 55 49 192 56 49 194 44 42 198 35 37 
185 61 53 175 143 96 168 167 112 173 144 100 173 145 101 168 167 112 180 120 86 193 49 45 
197 39 39 185 56 50 212 60 55 230 66 59 78 21 16 3 3 2 0 0 0 0 0 0 
0 0 0 0 0 0 0 0 0 0 0 0 0 0 0 0 0 0 0 0 0 
0 0 0 0 0 0 0 0 0 0 0 0 0 0 0 0 0 0 0 0 0 0 0 0 
0 0 0 0 0 0 0 0 0 3 3 2 158 48 40 238 69 60 198 57 51 191 52 48 
194 36 38 191 59 52 175 143 96 168 167 112 172 152 104 187 72 58 198 35 37 193 49 45 
192 56 49 192 55 49 192 55 49 192 55 49 192 55 49 192 55 49 192 55 49 192 55 49 
192 55 49 192 55 49 192 55 49 192 55 49 192 55 49 192 55 49 192 55 49 192 56 49 
197 39 39 194 44 42 180 120 86 168 167 112 168 167 112 181 109 75 197 39 39 194 44 42 
189 55 48 225 64 57 211 61 57 78 21 16 0 1 1 0 0 0 0 0 0 0 0 0 
0 0 0 0 0 0 0 0 0 0 0 0 0 0 0 0 0 0 0 0 0 
0 0 0 0 0 0 0 0 0 0 0 0 0 0 0 0 0 0 0 0 0 0 0 0 
0 0 0 0 0 0 0 0 0 0 0 0 0 0 0 115 31 30 228 67 60 219 61 55 
189 55 48 193 39 40 194 57 51 180 120 86 187 72 58 198 35 37 191 55 49 192 56 49 
191 55 49 191 55 49 204 60 54 211 61 57 208 61 55 208 61 55 208 61 55 208 61 55 
208 61 55 208 61 55 208 61 55 208 61 55 208 61 55 194 57 51 189 53 48 192 55 49 
192 56 49 194 44 42 197 39 39 181 109 75 179 96 72 198 35 37 193 49 45 194 57 51 
238 69 60 175 53 48 41 16 15 0 0 0 0 0 0 0 0 0 0 0 0 0 0 0 
0 0 0 0 0 0 0 0 0 0 0 0 0 0 0 0 0 0 0 0 0 
0 0 0 0 0 0 0 0 0 0 0 0 0 0 0 0 0 0 0 0 0 0 0 0 
0 0 0 0 0 0 0 0 0 0 0 0 0 0 0 3 3 2 70 17 11 194 57 51 
230 66 59 198 58 51 193 49 45 197 39 39 196 48 45 192 56 49 192 55 49 191 55 49 
195 55 49 212 60 55 175 53 48 154 44 34 154 44 34 154 44 34 154 44 34 154 44 34 
154 44 34 154 44 34 154 44 34 154 44 34 154 44 34 198 57 51 206 59 53 189 53 48 
192 55 49 192 56 49 191 52 48 197 39 39 194 44 42 189 53 48 214 61 56 230 66 59 
125 45 34 3 3 2 0 0 0 0 0 0 0 0 0 0 0 0 0 0 0 0 0 0 
0 0 0 0 0 0 0 0 0 0 0 0 0 0 0 0 0 0 0 0 0 
0 0 0 0 0 0 0 0 0 0 0 0 0 0 0 0 0 0 0 0 0 0 0 0 
0 0 0 0 0 0 0 0 0 0 0 0 0 0 0 0 0 0 0 1 1 10 5 5 
141 41 33 225 64 57 225 64 57 189 53 48 191 55 49 192 55 49 189 53 48 204 60 54 
214 61 56 154 44 34 89 23 8 79 15 2 89 23 8 89 23 8 89 23 8 89 23 8 
89 23 8 89 23 8 89 23 8 79 15 2 79 15 2 120 25 16 191 59 52 214 61 56 
194 57 51 191 55 49 192 55 49 189 53 48 204 55 50 230 66 59 191 59 52 78 21 16 
0 1 1 0 0 0 0 0 0 0 0 0 0 0 0 0 0 0 0 0 0 0 0 0 
0 0 0 0 0 0 0 0 0 0 0 0 0 0 0 0 0 0 0 0 0 
0 0 0 0 0 0 0 0 0 0 0 0 0 0 0 0 0 0 0 0 0 0 0 0 
0 0 0 0 0 0 0 0 0 0 0 0 0 0 0 0 0 0 0 0 0 0 0 0 
3 3 2 55 14 14 175 53 48 230 66 59 219 61 55 198 57 51 216 63 57 198 58 51 
139 26 24 89 23 8 89 23 8 100 27 12 100 27 12 100 27 12 100 27 12 100 27 12 
100 27 12 100 27 12 100 27 12 100 27 12 100 27 12 89 23 8 100 27 12 169 47 39 
216 63 57 208 61 55 202 57 51 230 66 59 211 61 57 115 31 30 3 3 2 0 0 0 
0 0 0 0 0 0 0 0 0 0 0 0 0 0 0 0 0 0 0 0 0 0 0 0 
0 0 0 0 0 0 0 0 0 0 0 0 0 0 0 0 0 0 0 0 0 
0 0 0 0 0 0 0 0 0 0 0 0 0 0 0 0 0 0 0 0 0 0 0 0 
0 0 0 0 0 0 0 0 0 0 0 0 0 0 0 0 0 0 0 0 0 0 0 0 
0 0 0 0 1 1 0 0 0 78 21 16 175 53 48 214 61 56 169 47 39 100 27 12 
89 23 8 100 27 12 100 27 14 100 27 12 100 27 12 100 27 12 100 27 12 100 27 12 
100 27 12 100 27 12 100 27 12 100 27 12 100 27 12 100 27 14 89 23 8 89 23 8 
125 45 34 196 48 45 211 61 57 125 45 34 32 11 10 0 1 1 0 1 1 0 0 0 
0 0 0 0 0 0 0 0 0 0 0 0 0 0 0 0 0 0 0 0 0 0 0 0 
0 0 0 0 0 0 0 0 0 0 0 0 0 0 0 0 0 0 0 0 0 
0 0 0 0 0 0 0 0 0 0 0 0 0 0 0 0 0 0 0 0 0 0 0 0 
0 0 0 0 0 0 0 0 0 0 0 0 0 0 0 0 0 0 0 0 0 0 0 0 
0 0 0 0 0 0 0 0 0 0 1 1 3 3 2 32 11 10 3 3 2 3 3 2 
16 4 3 16 4 3 16 4 3 16 4 3 16 4 3 16 4 3 16 4 3 16 4 3 
16 4 3 16 4 3 16 4 3 16 4 3 16 4 3 16 4 3 16 4 3 16 4 3 
0 0 0 16 4 3 27 10 9 0 0 0 0 0 0 0 0 0 0 0 0 0 0 0 
0 0 0 0 0 0 0 0 0 0 0 0 0 0 0 0 0 0 0 0 0 0 0 0 
0 0 0 0 0 0 0 0 0 0 0 0 0 0 0 0 0 0 0 0 0 
